# Blender v2.78 (sub 0) OBJ File: ''
# www.blender.org
mtllib arrow2.mtl
o Box
v -0.214804 1.023038 0.050000
v -0.214804 0.523038 0.050000
v -0.214804 0.523038 -0.050000
v -0.214804 1.023038 -0.050000
v -1.214804 1.023038 -0.050000
v -1.214804 0.523038 -0.050000
v -1.214804 0.523038 0.050000
v -1.214804 1.023038 0.050000
v -0.203369 1.273038 -0.050000
v -0.203369 0.273038 -0.050000
v -0.203369 0.273038 0.050000
v -0.203369 1.273038 0.050000
v 0.296631 0.773555 0.050000
v 0.296631 0.773555 -0.050000
vt 0.0000 1.0000
vt 0.0000 0.0000
vt 1.0000 0.0000
vt 1.0000 1.0000
vt 0.0000 1.0000
vt 0.0000 0.0000
vt 1.0000 0.0000
vt 1.0000 1.0000
vt 0.0000 0.0000
vt 1.0000 0.0000
vt 0.0000 1.0000
vt 1.0000 1.0000
vt 0.0000 1.0000
vt 0.0000 0.0000
vt 1.0000 0.0000
vt 1.0000 1.0000
vt 0.0000 1.0000
vt 0.0000 0.0000
vt 1.0000 0.0000
vt 1.0000 1.0000
vt 0.0000 1.0000
vt 0.0000 0.0000
vt 1.0000 0.0000
vt 1.0000 1.0000
vt 0.0000 0.0000
vt 1.0000 0.0000
vt 1.0000 1.0000
vt 0.0000 1.0000
vt 1.0000 0.0000
vt 1.0000 1.0000
vt 0.0000 1.0000
vt 0.0000 0.0000
vt 0.0000 1.0000
vt 1.0000 0.0000
vt 1.0000 1.0000
vn 1.0000 -0.0000 0.0000
vn -1.0000 -0.0000 0.0000
vn 0.0000 1.0000 0.0000
vn 0.0000 -1.0000 0.0000
vn 0.0000 -0.0000 1.0000
vn 0.0000 0.0000 -1.0000
vn 0.7067 0.7075 0.0000
vn 0.7075 -0.7067 0.0000
usemtl b0b0b0
s 1
f 1/1/1 2/2/1 3/3/1 4/4/1
f 5/5/2 6/6/2 7/7/2 8/8/2
f 5/5/3 8/9/3 1/10/3 4/4/3
f 7/11/4 6/6/4 3/3/4 2/12/4
f 8/13/5 7/14/5 2/15/5 1/16/5
f 4/17/6 3/18/6 6/19/6 5/20/6
f 9/21/2 10/22/2 11/23/2 12/24/2
f 9/21/7 12/25/7 13/26/7 14/27/7
f 11/28/8 10/22/8 14/29/8 13/30/8
f 12/31/5 11/32/5 13/26/5
f 14/33/6 10/34/6 9/35/6
